<?xml version="1.0" encoding="utf-8"?>
<!-- Generator: Adobe Illustrator 19.0.0, SVG Export Plug-In . SVG Version: 6.00 Build 0)  -->
<svg version="1.1" id="Layer_1" xmlns="http://www.w3.org/2000/svg" xmlns:xlink="http://www.w3.org/1999/xlink" x="0px" y="0px"
	 viewBox="0 0 960 560" style="enable-background:new 0 0 960 560;" xml:space="preserve">
<style type="text/css">
	.st0{fill:#FDE2CE;}
	.st1{fill:#F6CBB5;}
	.st2{fill:#FFFFFF;}
	.st3{fill:#FFC21C;}
	.st4{fill:#5A4A42;}
	.st5{fill:#F7A396;}
</style>
<g id="XMLID_2_">
	<g id="XMLID_15_">
		<g id="XMLID_18_">
			
				<ellipse id="XMLID_25_" transform="matrix(0.9291 -0.3697 0.3697 0.9291 -124.0356 236.7913)" class="st0" cx="555.7" cy="442" rx="29.8" ry="43.6"/>
			<path id="XMLID_24_" class="st1" d="M525.8,390.2c38.1,41.2,31.7,80.8,24.2,87.7c-7.5,6.9-21.8,16.4-40.5,0
				c-18.8-16.4-15-45.3-15-45.3L525.8,390.2z"/>
			<path id="XMLID_23_" class="st2" d="M496.2,351.2c48.1,32.5,37.2,98.6,12.4,126.7l-86-82.6L496.2,351.2z"/>
			<g id="XMLID_19_">
				<path id="XMLID_22_" class="st1" d="M306.3,377.8c-34.8,49.5-28.1,118.6-28.1,118.6l37.2,9.8c-1.2-18,17.6-44.3,17.6-44.3
					c21,30,86.4,33,121.6,21c2.6,13.8-10.5,37.5-10.5,37.5l40.6,12c29.3-32.3,39-96.1-6.8-147.2L306.3,377.8z"/>
				<circle id="XMLID_21_" class="st0" cx="461.7" cy="532.5" r="27.5"/>
				<circle id="XMLID_20_" class="st0" cx="294.5" cy="508.4" r="27.5"/>
			</g>
		</g>
		<path id="XMLID_17_" class="st0" d="M587.8,204.6c-6-102.8-92.9-184.3-199.2-184.3s-193.2,81.5-199.2,184.3
			c-21.2,4.3-37.3,24.7-37.3,49.1c0,27.6,20.5,49.9,45.8,49.9c4,0,7.8-0.5,11.4-1.6c32.5,64.9,100.5,109.7,179.3,109.7
			S535.4,367,567.9,302c3.7,1,7.5,1.6,11.4,1.6c25.3,0,45.8-22.4,45.8-49.9C625.1,229.2,609,208.9,587.8,204.6z"/>
		<path id="XMLID_16_" class="st3" d="M369.1,7.8c95.1-27,227.1,78.4,218.7,196.8c-18.3-78.3-71.5-123.4-126.1-135.4
			c0,0-12.1,21.9-4,42.6c0,0-29.5-24-26.5-47.1c0,0-12,32,11.5,54.6c-19.5-7.5-39.5-32.2-44.1-55.1c0,0,0.5,35.5,26,50.7
			c-24.9-2.3-57.4-31.5-57.4-64.2c-83.3,0-143.5,50.3-178,153.9C174.2,78.9,290.5,8.3,356.8,17.1C357.4,9.7,369.1,7.8,369.1,7.8z"/>
	</g>
	<g id="XMLID_13_">
		<path id="XMLID_14_" class="st4" d="M388.6,298.4c24.3,0,47,10.8,62.3,29.7c2.5,3.1,2,7.5-1,10c-3.1,2.5-7.5,2-10-1
			c-12.6-15.5-31.3-24.4-51.3-24.4c-20,0-38.7,8.9-51.3,24.4c-2.5,3.1-7,3.5-10,1c-3.1-2.5-3.5-7-1-10
			C341.6,309.2,364.3,298.4,388.6,298.4z"/>
	</g>
	<g id="XMLID_10_">
		<ellipse id="XMLID_12_" class="st5" cx="269.6" cy="281.8" rx="36.6" ry="18.3"/>
		<ellipse id="XMLID_11_" class="st5" cx="507.5" cy="281.8" rx="36.6" ry="18.3"/>
	</g>
	<g id="XMLID_7_">
		<circle id="XMLID_9_" class="st4" cx="303" cy="228" r="30"/>
		<circle id="XMLID_8_" class="st4" cx="474.2" cy="228" r="30"/>
	</g>
	<g id="XMLID_5_">
		<path id="XMLID_6_" class="st4" d="M340.3,203.6c-1.7,0-3.5-0.8-4.6-2.3c-6.2-8.6-40.8-31.3-69.4-25.3c-3,0.6-6-1.3-6.7-4.4
			c-0.6-3,1.3-6,4.4-6.7c33.4-7,72.3,18,80.8,29.8c1.8,2.5,1.3,6-1.3,7.9C342.6,203.3,341.4,203.6,340.3,203.6z"/>
	</g>
	<g id="XMLID_3_">
		<path id="XMLID_4_" class="st4" d="M436.9,203.6c1.7,0,3.5-0.8,4.6-2.3c6.2-8.6,40.8-31.3,69.4-25.3c3,0.6,6-1.3,6.7-4.4
			c0.6-3-1.3-6-4.4-6.7c-33.4-7-72.3,18-80.8,29.8c-1.8,2.5-1.3,6,1.3,7.9C434.6,203.3,435.7,203.6,436.9,203.6z"/>
	</g>
</g>
</svg>
