<?xml version="1.0" encoding="utf-8"?>
<!-- Generator: Adobe Illustrator 19.0.0, SVG Export Plug-In . SVG Version: 6.00 Build 0)  -->
<svg version="1.1" id="Layer_1" xmlns="http://www.w3.org/2000/svg" xmlns:xlink="http://www.w3.org/1999/xlink" x="0px" y="0px"
	 viewBox="0 0 960 560" style="enable-background:new 0 0 960 560;" xml:space="preserve">
<style type="text/css">
	.st0{fill:#FDE2CE;}
	.st1{fill:#F6CBB5;}
	.st2{fill:#FFFFFF;}
	.st3{fill:#FFC21C;}
	.st4{fill:#5A4A42;}
	.st5{fill:#F7A396;}
</style>
<g id="XMLID_2_">
	<g id="XMLID_11_">
		<g id="XMLID_14_">
			
				<ellipse id="XMLID_21_" transform="matrix(0.9291 -0.3697 0.3697 0.9291 -118.5359 263.9761)" class="st0" cx="629.4" cy="441.2" rx="30" ry="43.8"/>
			<path id="XMLID_20_" class="st1" d="M599.3,389.1c38.3,41.5,31.9,81.3,24.3,88.2c-7.6,6.9-21.9,16.5-40.8,0
				c-18.9-16.5-15.1-45.6-15.1-45.6L599.3,389.1z"/>
			<path id="XMLID_19_" class="st2" d="M569.5,349.9c48.4,32.7,37.5,99.2,12.5,127.5l-86.6-83.1L569.5,349.9z"/>
			<g id="XMLID_15_">
				<path id="XMLID_18_" class="st1" d="M378.3,376.7C343.3,426.5,350.1,496,350.1,496l37.5,9.8c-1.2-18.1,17.7-44.6,17.7-44.6
					c21.2,30.2,86.9,33.3,122.4,21.2c2.6,13.9-10.6,37.8-10.6,37.8l40.8,12.1c29.5-32.5,39.3-96.7-6.8-148.1L378.3,376.7z"/>
				<circle id="XMLID_17_" class="st0" cx="534.8" cy="532.3" r="27.7"/>
				<circle id="XMLID_16_" class="st0" cx="366.5" cy="508.1" r="27.7"/>
			</g>
		</g>
		<path id="XMLID_13_" class="st0" d="M661.7,202.3C655.6,98.9,568.2,16.9,461.2,16.9c-107,0-194.4,82-200.5,185.5
			c-21.4,4.4-37.6,24.8-37.6,49.4c0,27.8,20.6,50.3,46.1,50.3c4,0,7.8-0.5,11.5-1.6c32.7,65.4,101.2,110.4,180.4,110.4
			c79.2,0,147.7-45,180.4-110.4c3.7,1,7.5,1.6,11.5,1.6c25.5,0,46.1-22.5,46.1-50.3C699.2,227.1,683.1,206.7,661.7,202.3z"/>
		<path id="XMLID_12_" class="st3" d="M441.5,4.3c95.7-27.2,228.6,78.9,220.1,198c-18.4-78.8-72-124.2-126.9-136.3
			c0,0-12.2,22-4,42.8c0,0-29.7-24.1-26.7-47.4c0,0-12.1,32.2,11.6,54.9C496,108.8,475.9,84,471.3,61c0,0,0.5,35.8,26.2,51.1
			c-25-2.3-57.7-31.7-57.7-64.6c-83.9,0-144.4,50.6-179.1,154.9C245.4,75.8,362.4,4.8,429.2,13.6C429.8,6.2,441.5,4.3,441.5,4.3z"/>
	</g>
	<circle id="XMLID_10_" class="st4" cx="546.8" cy="226.9" r="30.2"/>
	<g id="XMLID_8_">
		<path id="XMLID_9_" class="st4" d="M460.7,339.2c-24.4,0-47.3-10.9-62.7-29.9c-2.5-3.1-2-7.6,1-10.1c3.1-2.5,7.6-2,10.1,1
			c12.7,15.6,31.5,24.6,51.6,24.6c20.1,0,38.9-9,51.6-24.6c2.5-3.1,7-3.5,10.1-1c3.1,2.5,3.5,7,1,10.1
			C508,328.3,485.1,339.2,460.7,339.2z"/>
	</g>
	<g id="XMLID_5_">
		<ellipse id="XMLID_7_" class="st5" cx="341" cy="281" rx="36.9" ry="18.4"/>
		<ellipse id="XMLID_6_" class="st5" cx="580.4" cy="281" rx="36.9" ry="18.4"/>
	</g>
	<g id="XMLID_3_">
		<path id="XMLID_4_" class="st4" d="M377.9,216.7c19.8,0,38.4,8.8,51,24.2c2,2.5,1.7,6.2-0.8,8.2c-2.5,2-6.2,1.7-8.2-0.8
			c-10.3-12.7-25.6-19.9-41.9-19.9c-16.3,0-31.6,7.3-41.9,19.9c-2,2.5-5.7,2.9-8.2,0.8c-2.5-2-2.9-5.7-0.8-8.2
			C339.4,225.5,358,216.7,377.9,216.7z"/>
	</g>
</g>
</svg>
